<svg width="30" height="30" viewBox="0 0 30 30" fill="none" xmlns="http://www.w3.org/2000/svg">
<g>
<path d="M27.8344 5.77031H2.16563C0.970313 5.77031 0 6.74062 0 7.93125V22.0641C0 23.2594 0.970313 24.2297 2.16563 24.2297H27.8391C29.0344 24.2297 30.0047 23.2594 30 22.0687V7.93125C30 6.74062 29.0297 5.77031 27.8344 5.77031V5.77031ZM15.8672 19.9031H12.9844V14.2781L10.1016 17.8828L7.21875 14.2781V19.9031H4.32656V10.0969H7.20938L10.0922 13.7016L12.975 10.0969H15.8578V19.9031H15.8672ZM22.2094 20.0484L17.8828 15H20.7656V10.0969H23.6484V15H26.5312L22.2094 20.0484Z" fill="white"/>
</g>
</svg>
