<svg width="20" height="20" viewBox="0 0 20 20" fill="none" xmlns="http://www.w3.org/2000/svg">
<path d="M17.1333 15H2.86667C2.20833 15 1.66667 14.475 1.66667 13.825V6.175C1.66667 5.525 2.20833 5 2.86667 5H17.1333C17.7917 5 18.3333 5.525 18.3333 6.175V13.825C18.3333 14.475 17.7917 15 17.1333 15ZM2.86667 5.78333C2.65 5.78333 2.46667 5.95833 2.46667 6.175V13.8333C2.46667 14.0417 2.65 14.2167 2.86667 14.2167H17.1333C17.35 14.2167 17.5333 14.0417 17.5333 13.8333V6.175C17.5333 5.95833 17.35 5.78333 17.1333 5.78333H2.86667ZM4.075 12.6583V7.34167H5.675L7.275 9.3L8.875 7.34167H10.4833V12.6583H8.875V9.60833L7.275 11.5667L5.675 9.60833V12.6583H4.075ZM14.0833 12.6583L11.6667 10.075H13.2833V7.34167H14.8833V10.075H16.4917L14.0833 12.6583Z" fill="#158FFF"/>
</svg>
