<svg width="14" height="14" viewBox="0 0 14 14" fill="none" xmlns="http://www.w3.org/2000/svg">
<path d="M13.7356 5.34335C13.6729 5.2523 13.5885 5.1783 13.4901 5.12805C13.3916 5.07781 13.2822 5.0529 13.1717 5.05557H4.34389C4.15762 5.06347 3.9772 5.12291 3.82272 5.22727C3.66823 5.33163 3.54574 5.47683 3.46889 5.64668C3.46762 5.66481 3.46762 5.683 3.46889 5.70113L2.33333 9.72224V2.72224H4.85722L5.87222 4.11835C5.90842 4.16789 5.95584 4.20817 6.01059 4.23588C6.06533 4.26359 6.12586 4.27795 6.18722 4.27779H12.4444C12.4444 4.07151 12.3625 3.87368 12.2166 3.72782C12.0708 3.58196 11.8729 3.50002 11.6667 3.50002H6.38556L5.48722 2.26335C5.41482 2.16426 5.31999 2.08372 5.21049 2.02829C5.101 1.97287 4.97994 1.94414 4.85722 1.94446H2.33333C2.12705 1.94446 1.92922 2.0264 1.78336 2.17227C1.6375 2.31813 1.55556 2.51596 1.55556 2.72224V11.5461C1.56163 11.6861 1.62257 11.818 1.7252 11.9134C1.82782 12.0087 1.96387 12.0598 2.10389 12.0556H11.7989C11.8857 12.059 11.9711 12.0333 12.0416 11.9826C12.1121 11.9318 12.1635 11.859 12.1878 11.7756L13.8172 5.90335C13.8476 5.81002 13.8561 5.71093 13.8419 5.6138C13.8277 5.51666 13.7913 5.42411 13.7356 5.34335ZM11.4917 11.2778H2.68333L4.19222 5.90724C4.22904 5.8598 4.28134 5.82677 4.34 5.81391H13.0239L11.4917 11.2778Z" fill="#158FFF"/>
</svg>
